<svg version="1.2" xmlns="http://www.w3.org/2000/svg" viewBox="0 0 143 143" width="143" height="143">
	<style>
		.s0 { fill: #000000 } 
	</style>
	<path id="Background" fill-rule="evenodd" class="s0" d="m41.28 118.09l0.03-5 59.74 0.37-0.03 5z"/>
	<path id="Form 1" fill-rule="evenodd" class="s0" d="m45.25 116.39l-4.96 0.61-9.22-75.22 4.97-0.61z"/>
	<path id="Form 2" fill-rule="evenodd" class="s0" d="m100.94 117.25l-4.98-0.37 5.53-74.85 4.99 0.37z"/>
	<path id="Form 3" fill-rule="evenodd" class="s0" d="m31.69 46.56l0.05-5 74.11 0.73-0.05 5z"/>
	<path id="Form 4" fill-rule="evenodd" class="s0" d="m45.44 57.91l4.99-0.42 4.05 48.68-4.98 0.41z"/>
	<path id="Form 5" fill-rule="evenodd" class="s0" d="m67.56 57.31l5 0.04-0.37 46.46-5-0.04z"/>
	<path id="Form 6" fill-rule="evenodd" class="s0" d="m86 57.97l4.99 0.2-1.84 46.83-5-0.2z"/>
	<path id="Form 8" fill-rule="evenodd" class="s0" d="m60 41v-5c0 0 5.43-4.26 10.8-4.12 4.95 0.14 9.85 4.12 9.85 4.12v5c0 0-4.89-4.54-9.85-4.69-5.36-0.16-10.8 4.69-10.8 4.69z"/>
	<path id="Form 9" fill-rule="evenodd" class="s0" d="m28.01 42.03l0.03-3 82.96 0.73-0.02 3z"/>
</svg>